<svg width="342" height="151" viewBox="0 0 342 151" fill="none" xmlns="http://www.w3.org/2000/svg">
<path fill-rule="evenodd" clip-rule="evenodd" d="M17.1753 103.68L4.66153 28.1396C5.88924 29.2623 8.87729 29.7028 10.9929 30.0146C12.1843 30.1902 13.099 30.325 13.2667 30.5179C13.3211 30.8305 12.4331 31.4565 11.3791 32.1995C9.86802 33.2648 8.01569 34.5706 8.10917 35.5385C8.43638 35.7894 8.7336 36.1093 9.04206 36.4414C9.8556 37.3171 10.7473 38.2769 12.4733 38.2769H16.8374C17.6308 37.5162 19.0591 35.6297 18.4243 34.1692C17.7895 32.7087 19.2178 32.9521 20.0113 33.2564L20.8047 38.2769L25.5656 40.1026L28.3427 38.2769V43.7538C25.8301 51.665 20.646 68.6738 20.0113 73.4205C19.3765 78.1672 18.6888 89.0906 18.4243 93.959V103.68H17.1753ZM5.62463 24.2838C5.10495 24.502 4.50518 24.7539 4.20035 25.3557L0 0H26.6393L28.8194 15.657L26.7558 16.3692C24.6398 15.7607 19.4558 14.9087 15.6472 16.3692C11.8385 17.8297 9.82836 19.412 9.29938 20.0205H20.0113C20.8047 20.0205 22.3917 20.4769 22.3917 22.3026C22.3917 24.1282 18.6888 24.5846 16.8374 24.5846C13.5312 23.9761 6.83962 22.9415 6.52223 23.6718C6.39725 23.9594 6.03603 24.111 5.62463 24.2838ZM38 47L37.4734 46.7591L35.0516 60.416L33.1236 46.569L30.7231 51.0564C29.9297 54.2513 28.0253 61.0974 26.7558 62.9231C25.6665 64.4894 24.9511 67.991 24.3529 70.9188C24.0796 72.2566 23.8307 73.4745 23.5819 74.3333C22.9471 76.5241 22.5239 83.4615 22.3917 86.6564V103.68H44.8661L56.2579 41.088L68.3507 103.68H83.0933L82 102.222V84.2222C81.6667 83.8889 81.5 81 82 80.2222C82.0238 80.1852 82.0476 80.1477 82.0715 80.1097C82.1014 80.0622 82.1315 80.0139 82.162 79.965C82.6187 79.2324 83.1608 78.3628 84.5 77.72C85.3662 77.3042 86.1656 76.4691 86.9177 75.6835C87.468 75.1086 87.9929 74.5603 88.5 74.2222C89.7 73.4222 89 69.8889 88.5 68.2222L85.5 63.7222C85.1667 62.7222 84.3 60.2222 83.5 58.2222L82 72.2222V75.2222C82 77.2222 80.3333 81.3889 79.5 83.2222C79 82.2222 78 79.7222 78 77.7222C78 76.5507 78.3431 75.2075 78.6274 74.0948C78.8284 73.308 79 72.6364 79 72.2222C79 71.2222 79.5 70.2222 79.5 70.2222L80.5 62.7222V56.7222C80.1923 55.6364 82.157 51.8683 83.6409 52.0821C84.5587 51.1748 86.6042 49.2388 88.5 47.7222C90.5 46.1222 94.6667 45.3889 96.5 45.2222H105.276L112.691 0H86.4023L77.8147 60.032L66.5981 0.128006H45.7424L42.5762 17.9829L43.4187 18.1949L45.7991 20.0205H48.5763C50.1632 20.1727 53.7338 20.3856 55.3208 20.0205C56.9077 19.6554 59.6849 21.3897 60.8751 22.3026C61.8008 22.759 63.8903 23.8544 64.8424 24.5846C65.7946 25.3149 64.4457 26.7145 63.6522 27.3231H50.9567L48.5763 30.5179H60.8751C61.8008 30.2137 64.1283 29.7877 66.0326 30.5179C67.937 31.2482 69.471 32.6479 70 33.2564V36.4513C69.471 36.4513 68.3337 36.2687 68.0163 35.5385C67.6989 34.8082 64.9747 34.3214 63.6522 34.1692H59.6849V36.4513L58.8914 40.1026L56.1142 38.2769H50.9567L48.5763 41.0154L42.2285 42.841L45.7991 46L48.5763 51.0564C48.5763 51.0564 48.5 56.8154 46.5 58.5C44.5 60.1846 42.2285 56.5 42.2285 56.5L38 47ZM95.691 103.68H86.7391C86.9122 103.163 87.0329 102.369 86.5 101.722C85.9449 101.048 84.5 99.7222 84.5 99.7222V95.7222C84.5 93.7222 85.1667 91.5556 85.5 90.7222C85.8333 90.5556 86.5 87.2222 86.5 87.2222C86.5 87.2222 87.5 84.7222 88.5 84.2222C89.5 83.7222 91 81.7222 91 81.7222H91.83C91.3133 82.162 91 82.6611 91 83.2222C91 85.6222 92 87.8889 92.5 88.7222L97.3486 93.5708L95.691 103.68ZM180.699 103.68V63.629C181.113 62.8839 181.5 61.9691 181.5 61.2222V54.2222C182.5 53.3889 184.5 51.3222 184.5 49.7222V42.2222H187C188.5 42.2222 192.5 43.2222 192.5 43.2222H198.5C198.5 43.2222 201.224 43.2038 202.5 42.2222C204.024 41.0498 204.895 39.7222 204.5 37.7222C204.105 35.7222 203.5 34.7222 202 33.2222C200.5 31.7222 198 30.7222 196.5 30.7222C195 30.7222 193.167 32.3889 192.5 33.2222H194.5C194.803 33.2222 195.142 33.1489 195.513 33.0688C196.366 32.8844 197.384 32.6644 198.5 33.2222C200.5 34.2222 202 36.2222 202 37.7222C202 38.9222 201 39.8889 200.5 40.2222H196.5C195.7 40.2222 192.167 39.2222 190.5 38.7222L187 37.7222C186.333 37.2222 184.9 36.0222 184.5 35.2222C184.1 34.4222 182.333 34.8889 181.5 35.2222H180.699V0H212.071V88.192H244.669V103.68H180.699ZM159.532 0V29.0205C158.916 28.9679 158.729 29.0256 158.512 29.0926C158.315 29.1536 158.093 29.2222 157.5 29.2222C155.5 29.2222 154 32.2222 153.5 33.2222C153.1 34.0222 153.333 36.5556 153.5 37.7222V40.2222H147C146.736 40.2222 146.403 40.1526 146 40.0686C144.875 39.8338 143.208 39.4861 141 40.2224C139.096 40.857 138.4 41.0888 137.763 41.4292C137.396 41.625 137.048 41.857 136.5 42.2222C135 43.2222 134 43.7222 132.5 44.2222C131.839 44.4425 130.037 44.6728 128.16 44.8632V0H159.532ZM159.532 30.8626V38.9223C158.454 39.3125 156.845 39.4468 156.5 37.7222C156 35.2222 156.5 32.7222 157.5 31.7222C157.959 31.2637 158.768 31.0022 159.532 30.8626ZM258.402 104.18V0.500046H294.33C306.715 0.500046 316.354 1.65205 323.247 3.95605C330.141 6.17472 334.99 9.71605 337.794 14.58C340.598 19.3587 342 25.588 342 33.268V70.9C342 78.6654 340.598 85.0227 337.794 89.972C334.99 94.836 330.141 98.42 323.247 100.724C316.471 103.028 306.948 104.18 294.68 104.18H258.402ZM289.773 88.3081H294.68C299.471 88.3081 302.917 87.796 305.021 86.772C307.124 85.748 308.409 84.212 308.876 82.164C309.46 80.116 309.753 77.556 309.753 74.484V29.3C309.753 26.228 309.402 23.7534 308.701 21.8761C308.117 19.9987 306.773 18.6334 304.67 17.7801C302.567 16.9267 299.179 16.5 294.505 16.5H289.773V88.3081ZM294.047 10.0029C293.321 10.9112 292.832 11.8591 292.369 12.7555C291.559 14.3263 290.83 15.7388 289.047 16.5029C286.247 17.7029 283.547 19.0029 282.547 19.5029L276.047 31.5028C274.881 32.8362 272.647 34.7028 273.047 31.5028C273.447 28.3028 275.214 26.1695 276.047 25.5028L279.547 19.5029C279.547 18.8362 279.647 17.0029 280.047 15.0029C280.447 13.0029 282.547 11.0029 282.547 11.0029C282.547 11.0029 283.547 9.00285 285.047 8.00285C286.547 7.00285 289.001 5.66144 289.001 5.66144C288.786 3.64649 291.547 1.50285 294.047 3.00285C295.14 3.65828 295.659 4.60009 295.731 5.66144L297.047 8.50285H295.033C294.768 9.01195 294.436 9.51685 294.047 10.0029ZM129 76.5V101.679L131.34 97C131.34 97 134.34 92.5 134.84 91C135.34 89.5 136.34 87.5 137.34 85.5C138.111 83.9574 137.692 80.0353 137.461 77.8631C137.392 77.2189 137.34 76.7287 137.34 76.5C137.34 75.7 135.673 76.1667 134.84 76.5H129ZM130.952 104.958L129 102.224V104.958H130.952ZM133.34 103.5L131.882 104.958H154.34V99C154.673 97.5 154.34 94 154.34 94C154.34 94 153.006 90.1667 152.84 89V79C152.84 77 151.84 75.8333 151.34 75.5H145.84C144.24 75.5 144.506 77.8333 144.84 79C144.34 80.3333 143.34 83.5 143.34 85.5C143.34 87.5 141.673 89.3333 140.84 90L134.84 99L133.34 103.5ZM158.34 103.5L157.854 104.958H160.371V76.0762C159.588 76.2679 158.877 76.4104 158.34 76.5V103.5Z" fill="#452920"/>
<path d="M73.2461 135.367C73.2461 135.419 73.2135 135.517 73.1484 135.66C73.0833 135.803 73.0052 135.953 72.9141 136.109C72.8359 136.266 72.7448 136.415 72.6406 136.559C72.5495 136.689 72.4714 136.767 72.4062 136.793C72.3672 136.819 72.1914 136.891 71.8789 137.008C71.5794 137.112 71.1758 137.242 70.668 137.398C70.1602 137.542 69.5612 137.698 68.8711 137.867C68.194 138.036 67.4518 138.199 66.6445 138.355C65.8503 138.499 64.9974 138.622 64.0859 138.727C63.1875 138.818 62.2695 138.87 61.332 138.883C60.5508 138.909 59.8216 138.935 59.1445 138.961C58.4674 138.987 57.8359 139 57.25 139C56.9245 139 56.612 138.993 56.3125 138.98C56.026 138.967 55.7526 138.948 55.4922 138.922C55.1276 138.883 54.776 138.837 54.4375 138.785C54.138 138.733 53.8255 138.668 53.5 138.59C53.1875 138.512 52.9141 138.408 52.6797 138.277C52.6146 138.264 52.556 138.232 52.5039 138.18C52.3997 138.102 52.3542 137.991 52.3672 137.848C52.25 137.783 52.1654 137.711 52.1133 137.633C52.0872 137.594 52.0677 137.568 52.0547 137.555C52.0547 137.529 52.0612 137.496 52.0742 137.457C52.0872 137.405 52.1458 137.307 52.25 137.164C52.1589 137.151 52.0872 137.125 52.0352 137.086C51.9961 137.047 51.9635 137.001 51.9375 136.949C51.8984 136.897 51.8789 136.832 51.8789 136.754C51.8789 136.676 51.8919 136.598 51.918 136.52C51.944 136.454 51.9766 136.383 52.0156 136.305C52.0677 136.214 52.1458 136.122 52.25 136.031C52.25 135.862 52.2695 135.738 52.3086 135.66C52.3216 135.608 52.3411 135.576 52.3672 135.562C52.3802 135.523 52.4323 135.484 52.5234 135.445C52.6146 135.406 52.7188 135.374 52.8359 135.348C52.9531 135.322 53.0703 135.302 53.1875 135.289C53.3177 135.276 53.4284 135.276 53.5195 135.289L53.5586 135.328C53.5846 134.469 53.6172 133.538 53.6562 132.535C53.6953 131.533 53.7344 130.602 53.7734 129.742C53.8255 128.74 53.8776 127.743 53.9297 126.754C53.9818 125.53 54.0599 124.241 54.1641 122.887C54.2552 121.728 54.3659 120.426 54.4961 118.98C54.6263 117.535 54.7956 116.064 55.0039 114.566L52.7578 114.605C52.6146 114.605 52.4779 114.586 52.3477 114.547C52.2435 114.521 52.1328 114.475 52.0156 114.41C51.8984 114.345 51.8138 114.247 51.7617 114.117C51.5534 114.091 51.3971 114.052 51.293 114C51.2018 113.948 51.1302 113.896 51.0781 113.844C51.026 113.792 51 113.727 51 113.648C51.026 113.505 51.0716 113.395 51.1367 113.316C51.2018 113.238 51.332 113.147 51.5273 113.043C51.7487 112.965 51.9049 112.867 51.9961 112.75C52.1003 112.62 52.2109 112.542 52.3281 112.516C52.3802 112.503 52.6862 112.444 53.2461 112.34C53.806 112.223 54.5156 112.092 55.375 111.949C56.2344 111.793 57.1979 111.65 58.2656 111.52C59.3333 111.376 60.3945 111.272 61.4492 111.207C62.3477 111.142 63.2396 111.103 64.125 111.09C65.0234 111.077 65.8633 111.07 66.6445 111.07C67.7122 111.07 68.6107 111.083 69.3398 111.109C70.069 111.135 70.5052 111.168 70.6484 111.207C70.7396 111.233 70.8307 111.279 70.9219 111.344C70.987 111.409 71.0586 111.5 71.1367 111.617C71.2148 111.721 71.2799 111.865 71.332 112.047C71.4362 112.099 71.5078 112.151 71.5469 112.203C71.599 112.242 71.638 112.281 71.6641 112.32L71.7227 112.438C71.7227 112.516 71.7227 112.613 71.7227 112.73C71.7227 112.835 71.7096 112.926 71.6836 113.004C71.6706 113.03 71.6445 113.056 71.6055 113.082C71.5794 113.108 71.5404 113.134 71.4883 113.16C71.4492 113.186 71.3971 113.212 71.332 113.238C71.3451 113.421 71.3451 113.564 71.332 113.668C71.319 113.772 71.2995 113.857 71.2734 113.922C71.2474 113.987 71.2148 114.039 71.1758 114.078C71.0846 114.143 70.9284 114.195 70.707 114.234C70.4987 114.26 70.1081 114.273 69.5352 114.273L57.4453 114.527C57.4062 114.905 57.3672 115.354 57.3281 115.875C57.3021 116.383 57.2695 116.93 57.2305 117.516C57.2044 118.102 57.1719 118.701 57.1328 119.312C57.1068 119.924 57.0807 120.517 57.0547 121.09C57.0286 121.65 57.0026 122.171 56.9766 122.652C56.9505 123.134 56.931 123.531 56.918 123.844C57.4128 123.701 57.9596 123.59 58.5586 123.512C59.1576 123.421 59.7174 123.349 60.2383 123.297C60.8503 123.245 61.4557 123.199 62.0547 123.16C62.4323 123.134 62.7969 123.121 63.1484 123.121C63.5 123.121 63.8385 123.121 64.1641 123.121C65.4661 123.121 66.4688 123.147 67.1719 123.199C67.888 123.251 68.2982 123.29 68.4023 123.316C68.4805 123.329 68.5651 123.382 68.6562 123.473C68.7474 123.564 68.832 123.674 68.9102 123.805C68.9883 123.922 69.0534 124.059 69.1055 124.215C69.1706 124.358 69.2031 124.488 69.2031 124.605C69.2031 124.827 69.1445 125.061 69.0273 125.309C68.9102 125.556 68.8125 125.758 68.7344 125.914C68.6302 126.083 68.4935 126.246 68.3242 126.402C68.1549 126.559 68.0117 126.624 67.8945 126.598C67.8555 126.598 67.6927 126.591 67.4062 126.578C67.1198 126.565 66.7617 126.552 66.332 126.539C65.9154 126.513 65.4596 126.493 64.9648 126.48C64.4701 126.467 63.9883 126.454 63.5195 126.441C63.0508 126.428 62.6276 126.422 62.25 126.422C61.8854 126.409 61.6185 126.402 61.4492 126.402C61.2409 126.402 60.9349 126.422 60.5312 126.461C60.1927 126.487 59.724 126.533 59.125 126.598C58.526 126.663 57.7643 126.754 56.8398 126.871C56.8138 127.405 56.8008 127.965 56.8008 128.551C56.8008 129.137 56.8008 129.755 56.8008 130.406C56.8008 131.305 56.8138 132.197 56.8398 133.082C56.8659 133.954 56.9115 134.742 56.9766 135.445H59.0859C59.8281 135.445 60.5638 135.439 61.293 135.426C62.0221 135.4 62.6862 135.367 63.2852 135.328C64.1576 135.263 64.9844 135.191 65.7656 135.113C66.5599 135.035 67.2695 134.964 67.8945 134.898C68.5195 134.833 69.0404 134.788 69.457 134.762C69.8737 134.723 70.1341 134.71 70.2383 134.723C70.3424 134.749 70.4792 134.755 70.6484 134.742C70.8307 134.729 71.0195 134.71 71.2148 134.684C71.4102 134.658 71.599 134.632 71.7812 134.605C71.9635 134.579 72.1068 134.553 72.2109 134.527C72.3021 134.514 72.4062 134.54 72.5234 134.605C72.6406 134.658 72.7513 134.736 72.8555 134.84C72.9596 134.931 73.0443 135.029 73.1094 135.133C73.1875 135.237 73.2331 135.315 73.2461 135.367Z" fill="#346C2F"/>
<path d="M86.7812 137.672C86.8724 137.789 86.9049 137.906 86.8789 138.023C86.8529 138.141 86.8008 138.245 86.7227 138.336C86.6445 138.427 86.5469 138.499 86.4297 138.551C86.3255 138.59 86.2279 138.59 86.1367 138.551C85.9544 138.512 85.7591 138.531 85.5508 138.609C85.3555 138.674 85.2188 138.74 85.1406 138.805C85.0625 138.883 85.043 138.967 85.082 139.059C85.1341 139.15 85.1927 139.247 85.2578 139.352C85.362 139.482 85.3685 139.618 85.2773 139.762C85.1862 139.918 85.0495 139.983 84.8672 139.957C84.7891 139.957 84.6393 139.833 84.418 139.586C84.2096 139.352 83.9557 139.046 83.6562 138.668C83.3698 138.29 83.0573 137.861 82.7188 137.379C82.3802 136.884 82.0352 136.389 81.6836 135.895C81.3451 135.387 81.013 134.892 80.6875 134.41C80.375 133.928 80.1016 133.499 79.8672 133.121C79.5807 133.473 79.2552 133.863 78.8906 134.293C78.5391 134.71 78.181 135.139 77.8164 135.582C77.4648 136.012 77.1133 136.435 76.7617 136.852C76.4232 137.255 76.1172 137.62 75.8438 137.945C75.5703 138.258 75.3424 138.518 75.1602 138.727C74.9779 138.922 74.8672 139.026 74.8281 139.039C74.6849 139.117 74.5612 139.221 74.457 139.352C74.3659 139.482 74.2227 139.566 74.0273 139.605C73.9362 139.618 73.8516 139.605 73.7734 139.566C73.7083 139.54 73.6432 139.501 73.5781 139.449C73.513 139.41 73.4479 139.371 73.3828 139.332C73.3177 139.306 73.2526 139.299 73.1875 139.312C73.0573 139.312 72.9596 139.208 72.8945 139C72.8294 138.805 72.888 138.577 73.0703 138.316C73.0833 138.29 73.1875 138.16 73.3828 137.926C73.5781 137.678 73.8255 137.366 74.125 136.988C74.4375 136.598 74.7891 136.161 75.1797 135.68C75.5703 135.198 75.974 134.71 76.3906 134.215C76.8073 133.707 77.2174 133.212 77.6211 132.73C78.0247 132.249 78.3958 131.819 78.7344 131.441C78.3307 130.855 77.888 130.198 77.4062 129.469C76.9245 128.74 76.4557 128.043 76 127.379C75.5443 126.702 75.1341 126.109 74.7695 125.602C74.418 125.094 74.1706 124.762 74.0273 124.605C73.8841 124.462 73.7734 124.332 73.6953 124.215C73.6302 124.111 73.5911 124.02 73.5781 123.941C73.5651 123.863 73.6172 123.818 73.7344 123.805C73.7995 123.792 73.8385 123.759 73.8516 123.707C73.8776 123.642 73.8971 123.583 73.9102 123.531C73.9362 123.466 73.9622 123.408 73.9883 123.355C74.0143 123.303 74.0664 123.264 74.1445 123.238C74.2878 123.199 74.4766 123.18 74.7109 123.18C74.9583 123.18 75.1536 123.147 75.2969 123.082C75.4661 123.043 75.5768 123.043 75.6289 123.082C75.694 123.121 75.7852 123.199 75.9023 123.316C75.9414 123.368 75.9609 123.388 75.9609 123.375C75.974 123.362 75.9805 123.336 75.9805 123.297C75.9805 123.258 75.987 123.219 76 123.18C76.013 123.128 76.0456 123.095 76.0977 123.082C76.2148 123.043 76.2995 123.017 76.3516 123.004C76.4167 122.991 76.4688 122.926 76.5078 122.809C76.5339 122.665 76.5534 122.6 76.5664 122.613C76.5924 122.613 76.6771 122.678 76.8203 122.809C76.8724 122.874 77.0417 123.102 77.3281 123.492C77.6146 123.87 77.9596 124.352 78.3633 124.938C78.7669 125.51 79.1901 126.142 79.6328 126.832C80.0885 127.509 80.5117 128.18 80.9023 128.844C81.293 128.31 81.7292 127.717 82.2109 127.066C82.6927 126.402 83.1615 125.771 83.6172 125.172C84.0859 124.573 84.5156 124.059 84.9062 123.629C85.2969 123.186 85.5898 122.913 85.7852 122.809C85.9284 122.717 86.0326 122.659 86.0977 122.633C86.1628 122.607 86.2148 122.594 86.2539 122.594C86.319 122.594 86.3906 122.633 86.4688 122.711C86.5859 122.776 86.6966 122.828 86.8008 122.867C86.918 122.893 87.0156 122.965 87.0938 123.082C87.1979 123.199 87.2565 123.323 87.2695 123.453C87.2826 123.57 87.2695 123.701 87.2305 123.844C87.2044 123.909 87.0872 124.098 86.8789 124.41C86.6836 124.723 86.3711 125.159 85.9414 125.719C85.5247 126.279 84.9844 126.969 84.3203 127.789C83.6693 128.596 82.875 129.547 81.9375 130.641C82.1979 131.096 82.4909 131.578 82.8164 132.086C83.1419 132.594 83.474 133.102 83.8125 133.609C84.1641 134.104 84.5026 134.586 84.8281 135.055C85.1536 135.51 85.4531 135.927 85.7266 136.305C86 136.669 86.2279 136.975 86.4102 137.223C86.6055 137.47 86.7292 137.62 86.7812 137.672Z" fill="#346C2F"/>
<path d="M93.4805 122.594C93.4544 122.685 93.4349 122.867 93.4219 123.141C93.4089 123.414 93.3893 123.753 93.3633 124.156C93.9232 124 94.4961 123.876 95.082 123.785C95.668 123.694 96.2669 123.648 96.8789 123.648C97.556 123.648 98.2331 123.727 98.9102 123.883C99.5872 124.026 100.219 124.28 100.805 124.645C101.26 124.918 101.645 125.354 101.957 125.953C102.283 126.552 102.549 127.197 102.758 127.887C102.875 128.29 102.992 128.74 103.109 129.234C103.227 129.716 103.285 130.25 103.285 130.836C103.285 131.331 103.22 131.845 103.09 132.379C102.973 132.913 102.758 133.466 102.445 134.039C102.133 134.599 101.71 135.178 101.176 135.777C100.642 136.363 99.9583 136.956 99.125 137.555C98.3177 138.141 97.5951 138.59 96.957 138.902C96.332 139.202 95.7982 139.41 95.3555 139.527C94.9128 139.645 94.5677 139.697 94.3203 139.684C94.0859 139.684 93.9492 139.671 93.9102 139.645C93.793 139.566 93.6758 139.417 93.5586 139.195C93.4414 138.987 93.2786 138.759 93.0703 138.512C93.0052 138.434 92.9466 138.355 92.8945 138.277C92.8424 138.186 92.7839 138.082 92.7188 137.965C92.6797 139.215 92.6471 140.439 92.6211 141.637C92.6081 142.835 92.6016 143.954 92.6016 144.996C92.6016 145.647 92.6081 146.253 92.6211 146.812C92.6341 147.385 92.6536 147.9 92.6797 148.355C92.6797 148.525 92.6862 148.688 92.6992 148.844C92.7253 149.013 92.7318 149.163 92.7188 149.293C92.7188 149.423 92.6927 149.527 92.6406 149.605C92.5885 149.684 92.4909 149.723 92.3477 149.723C92.0872 149.723 91.8854 149.781 91.7422 149.898C91.612 150.029 91.4557 150.224 91.2734 150.484C91.1693 150.602 91.0586 150.686 90.9414 150.738C90.8242 150.803 90.7005 150.803 90.5703 150.738C90.4531 150.686 90.3294 150.562 90.1992 150.367C90.082 150.185 89.9714 149.905 89.8672 149.527C89.8281 149.371 89.7891 149.163 89.75 148.902C89.724 148.655 89.6979 148.336 89.6719 147.945C89.6589 147.568 89.6458 147.105 89.6328 146.559C89.6328 146.025 89.6328 145.387 89.6328 144.645L89.7109 137.887C89.737 136.181 89.8021 134.521 89.9062 132.906C90.0104 131.292 90.1341 129.775 90.2773 128.355C89.9518 128.486 89.6523 128.583 89.3789 128.648C89.1055 128.714 88.9362 128.727 88.8711 128.688C88.7409 128.635 88.6562 128.577 88.6172 128.512C88.5781 128.447 88.5521 128.388 88.5391 128.336C88.526 128.271 88.5065 128.219 88.4805 128.18C88.4674 128.128 88.4154 128.095 88.3242 128.082C88.2331 128.069 88.1549 128.03 88.0898 127.965C88.0247 127.9 87.9792 127.835 87.9531 127.77C87.9401 127.704 87.9466 127.646 87.9727 127.594C88.0117 127.529 88.0833 127.49 88.1875 127.477C88.2786 127.464 88.2917 127.431 88.2266 127.379C88.1615 127.314 88.0964 127.236 88.0312 127.145C87.9792 127.04 87.9661 126.917 87.9922 126.773C88.0182 126.617 88.181 126.441 88.4805 126.246C88.6367 126.116 88.9102 125.953 89.3008 125.758C89.6914 125.549 90.1602 125.322 90.707 125.074C90.8503 124.059 90.9935 123.232 91.1367 122.594C91.293 121.943 91.4297 121.546 91.5469 121.402C91.612 121.337 91.6576 121.279 91.6836 121.227C91.7096 121.174 91.7357 121.129 91.7617 121.09C91.7878 121.051 91.8203 121.018 91.8594 120.992C91.8984 120.966 91.9701 120.94 92.0742 120.914C92.1654 120.901 92.2435 120.921 92.3086 120.973C92.3737 121.025 92.4323 121.096 92.4844 121.188C92.5495 121.266 92.6146 121.344 92.6797 121.422C92.7448 121.5 92.8229 121.546 92.9141 121.559C93.0964 121.585 93.2396 121.682 93.3438 121.852C93.4609 122.008 93.5065 122.255 93.4805 122.594ZM97.2305 126.402C96.6445 126.402 96.0195 126.467 95.3555 126.598C94.6914 126.728 93.9557 126.943 93.1484 127.242L92.7969 135.719C92.9141 135.758 93.0443 135.784 93.1875 135.797C93.3307 135.797 93.4935 135.797 93.6758 135.797C94.1055 135.797 94.6003 135.738 95.1602 135.621C95.7331 135.504 96.3125 135.328 96.8984 135.094C97.4844 134.846 98.0638 134.553 98.6367 134.215C99.2096 133.863 99.7174 133.46 100.16 133.004C100.616 132.548 100.98 132.04 101.254 131.48C101.527 130.921 101.671 130.309 101.684 129.645C101.697 129.254 101.605 128.87 101.41 128.492C101.228 128.102 100.948 127.75 100.57 127.438C100.206 127.125 99.7435 126.878 99.1836 126.695C98.6237 126.5 97.9727 126.402 97.2305 126.402Z" fill="#346C2F"/>
<path d="M109.828 112.926C109.828 113.108 109.815 113.466 109.789 114C109.763 114.534 109.73 115.178 109.691 115.934C109.652 116.676 109.607 117.496 109.555 118.395C109.516 119.28 109.47 120.172 109.418 121.07C109.366 121.956 109.32 122.815 109.281 123.648C109.242 124.482 109.216 125.211 109.203 125.836C109.177 126.214 109.158 126.63 109.145 127.086C109.145 127.542 109.145 128.03 109.145 128.551C109.145 129.241 109.145 129.964 109.145 130.719C109.158 131.461 109.171 132.197 109.184 132.926C109.197 133.655 109.21 134.358 109.223 135.035C109.249 135.699 109.268 136.298 109.281 136.832C109.294 137.366 109.301 137.815 109.301 138.18C109.314 138.531 109.32 138.753 109.32 138.844C109.32 139.026 109.288 139.163 109.223 139.254C109.171 139.358 109.099 139.423 109.008 139.449C108.93 139.488 108.845 139.495 108.754 139.469C108.663 139.456 108.585 139.43 108.52 139.391C108.441 139.352 108.376 139.306 108.324 139.254C108.285 139.202 108.253 139.163 108.227 139.137C108.201 139.111 108.174 139.104 108.148 139.117C108.135 139.13 108.122 139.182 108.109 139.273C108.07 139.612 107.992 139.866 107.875 140.035C107.771 140.204 107.654 140.315 107.523 140.367C107.406 140.432 107.296 140.452 107.191 140.426C107.087 140.4 107.022 140.354 106.996 140.289C106.97 140.224 106.924 140.185 106.859 140.172C106.807 140.159 106.749 140.146 106.684 140.133C106.618 140.133 106.553 140.113 106.488 140.074C106.436 140.048 106.404 139.983 106.391 139.879C106.286 139.436 106.221 138.876 106.195 138.199C106.169 137.509 106.156 136.734 106.156 135.875C106.156 135.133 106.163 134.332 106.176 133.473C106.189 132.613 106.195 131.734 106.195 130.836C106.195 130.315 106.195 129.801 106.195 129.293C106.195 128.772 106.182 128.245 106.156 127.711V126.48C106.156 125.426 106.182 124.371 106.234 123.316C106.286 122.249 106.352 121.227 106.43 120.25C106.508 119.273 106.592 118.355 106.684 117.496C106.775 116.637 106.853 115.875 106.918 115.211C106.983 114.547 107.035 114.007 107.074 113.59C107.113 113.173 107.126 112.913 107.113 112.809C107.1 112.717 107.107 112.652 107.133 112.613C107.172 112.574 107.217 112.555 107.27 112.555C107.335 112.542 107.4 112.535 107.465 112.535C107.53 112.522 107.589 112.503 107.641 112.477C107.732 112.424 107.803 112.411 107.855 112.438C107.921 112.451 107.973 112.477 108.012 112.516C108.051 112.555 108.083 112.6 108.109 112.652C108.148 112.691 108.201 112.711 108.266 112.711C108.344 112.698 108.402 112.678 108.441 112.652C108.493 112.613 108.533 112.581 108.559 112.555C108.598 112.516 108.63 112.483 108.656 112.457C108.695 112.431 108.741 112.424 108.793 112.438C108.897 112.464 108.995 112.483 109.086 112.496C109.19 112.496 109.242 112.477 109.242 112.438C109.268 112.333 109.307 112.288 109.359 112.301C109.411 112.301 109.477 112.333 109.555 112.398C109.633 112.464 109.698 112.535 109.75 112.613C109.802 112.678 109.828 112.783 109.828 112.926Z" fill="#346C2F"/>
<path d="M126.273 130.758C126.273 132.125 126.072 133.355 125.668 134.449C125.277 135.543 124.737 136.474 124.047 137.242C123.37 138.01 122.582 138.603 121.684 139.02C120.785 139.436 119.835 139.645 118.832 139.645C118.415 139.645 117.96 139.592 117.465 139.488C116.97 139.397 116.475 139.241 115.98 139.02C115.486 138.798 115.004 138.505 114.535 138.141C114.066 137.776 113.65 137.327 113.285 136.793C112.921 136.259 112.628 135.634 112.406 134.918C112.198 134.202 112.1 133.375 112.113 132.438C112.113 131.37 112.243 130.4 112.504 129.527C112.764 128.642 113.096 127.854 113.5 127.164C113.917 126.461 114.385 125.855 114.906 125.348C115.427 124.84 115.948 124.417 116.469 124.078C116.99 123.727 117.491 123.466 117.973 123.297C118.454 123.128 118.871 123.03 119.223 123.004C119.405 122.991 119.483 123.01 119.457 123.062C119.444 123.115 119.398 123.173 119.32 123.238C119.242 123.303 119.171 123.368 119.105 123.434C119.053 123.499 119.079 123.538 119.184 123.551C119.275 123.577 119.346 123.603 119.398 123.629C119.464 123.655 119.529 123.688 119.594 123.727L119.75 123.551C119.841 123.486 119.926 123.453 120.004 123.453C120.095 123.453 120.173 123.466 120.238 123.492C120.303 123.505 120.355 123.512 120.395 123.512C120.434 123.512 120.46 123.473 120.473 123.395C120.499 123.251 120.544 123.173 120.609 123.16C120.688 123.134 120.857 123.121 121.117 123.121C121.273 123.121 121.508 123.167 121.82 123.258C122.146 123.349 122.497 123.505 122.875 123.727C123.266 123.948 123.656 124.247 124.047 124.625C124.451 124.99 124.815 125.458 125.141 126.031C125.479 126.591 125.753 127.262 125.961 128.043C126.169 128.824 126.273 129.729 126.273 130.758ZM119.223 125.035C118.767 125.309 118.318 125.68 117.875 126.148C117.432 126.617 117.029 127.158 116.664 127.77C116.312 128.382 116.026 129.065 115.805 129.82C115.583 130.576 115.473 131.37 115.473 132.203C115.473 133.102 115.551 133.915 115.707 134.645C115.876 135.374 116.117 135.999 116.43 136.52C116.742 137.027 117.12 137.424 117.562 137.711C118.018 137.984 118.533 138.121 119.105 138.121C119.613 138.121 120.115 137.978 120.609 137.691C121.117 137.405 121.566 136.975 121.957 136.402C122.348 135.829 122.66 135.12 122.895 134.273C123.142 133.427 123.266 132.444 123.266 131.324C123.266 130.191 123.116 129.241 122.816 128.473C122.517 127.704 122.178 127.086 121.801 126.617C121.436 126.135 121.085 125.797 120.746 125.602C120.408 125.393 120.199 125.289 120.121 125.289C119.939 125.289 119.796 125.289 119.691 125.289C119.6 125.289 119.444 125.204 119.223 125.035Z" fill="#346C2F"/>
<path d="M138.559 124.957C138.546 125.335 138.507 125.712 138.441 126.09C138.389 126.454 138.311 126.806 138.207 127.145C138.103 127.47 137.973 127.763 137.816 128.023C137.673 128.284 137.51 128.492 137.328 128.648C137.172 128.779 137.048 128.844 136.957 128.844C136.866 128.844 136.788 128.818 136.723 128.766C136.671 128.714 136.625 128.655 136.586 128.59C136.547 128.525 136.495 128.486 136.43 128.473C136.378 128.46 136.306 128.466 136.215 128.492C136.137 128.505 136.052 128.505 135.961 128.492C135.883 128.479 135.805 128.434 135.727 128.355C135.661 128.264 135.616 128.108 135.59 127.887C135.564 127.639 135.57 127.32 135.609 126.93C135.661 126.526 135.688 126.135 135.688 125.758C135.688 125.419 135.648 125.139 135.57 124.918C135.505 124.684 135.382 124.566 135.199 124.566C135.108 124.566 134.945 124.638 134.711 124.781C134.49 124.911 134.242 125.198 133.969 125.641C133.695 126.083 133.422 126.728 133.148 127.574C132.875 128.408 132.654 129.521 132.484 130.914C132.484 132.711 132.497 134.156 132.523 135.25C132.549 136.344 132.562 137.197 132.562 137.809C132.562 138.329 132.549 138.701 132.523 138.922C132.497 139.143 132.432 139.286 132.328 139.352C132.263 139.391 132.133 139.436 131.938 139.488C131.755 139.553 131.553 139.612 131.332 139.664C131.124 139.716 130.922 139.762 130.727 139.801C130.531 139.84 130.408 139.853 130.355 139.84C130.316 139.827 130.245 139.781 130.141 139.703C130.036 139.638 129.926 139.553 129.809 139.449C129.704 139.345 129.607 139.234 129.516 139.117C129.424 139.013 129.372 138.922 129.359 138.844C129.333 138.714 129.32 138.421 129.32 137.965C129.333 137.496 129.34 136.936 129.34 136.285C129.353 135.634 129.366 134.924 129.379 134.156C129.392 133.375 129.398 132.6 129.398 131.832C129.398 131.337 129.411 130.79 129.438 130.191C129.477 129.579 129.516 128.961 129.555 128.336C129.607 127.711 129.659 127.099 129.711 126.5C129.763 125.901 129.809 125.367 129.848 124.898C129.9 124.417 129.939 124.02 129.965 123.707C130.004 123.382 130.03 123.186 130.043 123.121C130.056 123.017 130.102 122.978 130.18 123.004C130.271 123.03 130.362 123.076 130.453 123.141C130.557 123.206 130.648 123.264 130.727 123.316C130.805 123.368 130.857 123.368 130.883 123.316C130.909 123.199 131.007 123.186 131.176 123.277C131.345 123.355 131.501 123.447 131.645 123.551C131.697 123.616 131.755 123.674 131.82 123.727C131.898 123.766 131.97 123.824 132.035 123.902C132.1 123.967 132.152 124.059 132.191 124.176C132.243 124.293 132.27 124.449 132.27 124.645C132.27 124.827 132.283 125.1 132.309 125.465C132.335 125.829 132.367 126.259 132.406 126.754C132.549 126.285 132.719 125.79 132.914 125.27C133.122 124.749 133.37 124.273 133.656 123.844C133.943 123.401 134.281 123.036 134.672 122.75C135.062 122.464 135.531 122.32 136.078 122.32C136.378 122.32 136.677 122.379 136.977 122.496C137.276 122.613 137.543 122.789 137.777 123.023C138.025 123.245 138.22 123.518 138.363 123.844C138.507 124.169 138.572 124.54 138.559 124.957Z" fill="#346C2F"/>
<path d="M151.703 127.555C151.716 128.01 151.677 128.57 151.586 129.234C151.495 129.885 151.391 130.589 151.273 131.344C151.156 132.086 151.046 132.848 150.941 133.629C150.837 134.41 150.785 135.146 150.785 135.836C150.785 136.292 150.818 136.728 150.883 137.145C150.948 137.548 151.059 137.9 151.215 138.199C151.306 138.368 151.352 138.518 151.352 138.648C151.365 138.779 151.358 138.896 151.332 139C151.306 139.091 151.28 139.169 151.254 139.234C151.228 139.312 151.228 139.384 151.254 139.449C151.28 139.514 151.273 139.586 151.234 139.664C151.195 139.755 151.137 139.833 151.059 139.898C150.98 139.977 150.889 140.029 150.785 140.055C150.694 140.094 150.609 140.087 150.531 140.035C150.388 139.944 150.271 139.892 150.18 139.879C150.102 139.866 150.03 139.866 149.965 139.879C149.913 139.905 149.861 139.931 149.809 139.957C149.77 139.983 149.717 139.983 149.652 139.957C149.431 139.84 149.19 139.703 148.93 139.547C148.669 139.391 148.5 139.221 148.422 139.039C148.37 138.961 148.318 138.831 148.266 138.648C148.227 138.466 148.188 138.251 148.148 138.004C148.122 137.757 148.096 137.49 148.07 137.203C148.044 136.917 148.025 136.637 148.012 136.363C147.582 137.171 147.12 137.841 146.625 138.375C146.143 138.909 145.655 139.332 145.16 139.645C144.678 139.97 144.197 140.198 143.715 140.328C143.246 140.458 142.816 140.523 142.426 140.523C142.022 140.523 141.664 140.471 141.352 140.367C141.052 140.263 140.818 140.139 140.648 139.996C140.01 139.358 139.555 138.844 139.281 138.453C139.021 138.049 138.904 137.724 138.93 137.477C138.995 136.643 139.197 135.875 139.535 135.172C139.874 134.469 140.297 133.824 140.805 133.238C141.312 132.639 141.879 132.105 142.504 131.637C143.142 131.155 143.786 130.732 144.438 130.367C145.102 129.99 145.753 129.677 146.391 129.43C147.029 129.169 147.608 128.961 148.129 128.805C148.103 128.102 148.07 127.49 148.031 126.969C148.005 126.435 147.96 126.044 147.895 125.797C147.699 124.99 147.4 124.391 146.996 124C146.592 123.596 146.104 123.395 145.531 123.395C145.167 123.395 144.796 123.531 144.418 123.805C144.053 124.078 143.721 124.449 143.422 124.918C143.122 125.387 142.875 125.927 142.68 126.539C142.497 127.151 142.4 127.796 142.387 128.473C142.387 128.642 142.393 128.805 142.406 128.961C142.419 129.117 142.439 129.28 142.465 129.449C142.478 129.54 142.445 129.605 142.367 129.645C142.302 129.684 142.217 129.716 142.113 129.742C142.009 129.755 141.898 129.768 141.781 129.781C141.664 129.794 141.566 129.814 141.488 129.84C141.423 129.866 141.371 129.885 141.332 129.898C141.293 129.898 141.254 129.892 141.215 129.879C141.176 129.853 141.124 129.814 141.059 129.762C141.007 129.71 140.928 129.645 140.824 129.566C140.72 129.488 140.609 129.423 140.492 129.371C140.388 129.319 140.29 129.273 140.199 129.234C140.121 129.195 140.049 129.163 139.984 129.137C139.932 129.098 139.906 129.052 139.906 129C139.906 128.193 140.082 127.359 140.434 126.5C140.798 125.641 141.28 124.859 141.879 124.156C142.491 123.44 143.194 122.854 143.988 122.398C144.796 121.943 145.648 121.715 146.547 121.715C147.276 121.715 147.908 121.826 148.441 122.047C148.975 122.268 149.431 122.555 149.809 122.906C150.186 123.258 150.492 123.648 150.727 124.078C150.974 124.508 151.163 124.944 151.293 125.387C151.436 125.816 151.534 126.227 151.586 126.617C151.651 126.995 151.69 127.307 151.703 127.555ZM148.168 131.031C147.777 131.174 147.348 131.363 146.879 131.598C146.41 131.832 145.935 132.112 145.453 132.438C144.971 132.75 144.49 133.115 144.008 133.531C143.526 133.948 143.077 134.41 142.66 134.918C142.165 135.504 141.807 136.025 141.586 136.48C141.365 136.936 141.228 137.327 141.176 137.652C141.124 137.965 141.137 138.212 141.215 138.395C141.293 138.577 141.384 138.688 141.488 138.727C141.892 138.883 142.309 138.902 142.738 138.785C143.181 138.655 143.617 138.434 144.047 138.121C144.49 137.796 144.913 137.411 145.316 136.969C145.733 136.513 146.124 136.051 146.488 135.582C146.853 135.1 147.178 134.632 147.465 134.176C147.751 133.707 147.986 133.303 148.168 132.965V131.031Z" fill="#346C2F"/>
<path d="M160.297 116.031C160.297 116.109 160.284 116.318 160.258 116.656C160.232 116.982 160.193 117.418 160.141 117.965C160.102 118.512 160.049 119.15 159.984 119.879C159.919 120.595 159.854 121.37 159.789 122.203C160.609 122.099 161.384 122.021 162.113 121.969C162.855 121.904 163.48 121.871 163.988 121.871C164.158 121.871 164.307 121.904 164.438 121.969C164.568 122.034 164.672 122.112 164.75 122.203C164.841 122.281 164.913 122.372 164.965 122.477C165.017 122.568 165.049 122.646 165.062 122.711C165.062 122.776 165.069 122.841 165.082 122.906C165.095 122.958 165.102 123.017 165.102 123.082C165.102 123.342 164.984 123.603 164.75 123.863C164.529 124.124 164.19 124.286 163.734 124.352L159.574 124.801C159.509 125.738 159.451 126.702 159.398 127.691C159.346 128.681 159.294 129.671 159.242 130.66C159.203 131.637 159.171 132.6 159.145 133.551C159.118 134.501 159.105 135.4 159.105 136.246C159.105 136.793 159.118 137.236 159.145 137.574C159.171 137.913 159.184 138.134 159.184 138.238C159.184 138.46 159.138 138.681 159.047 138.902C158.969 139.111 158.871 139.299 158.754 139.469C158.65 139.651 158.533 139.794 158.402 139.898C158.285 140.016 158.188 140.074 158.109 140.074C157.641 140.074 157.27 139.924 156.996 139.625C156.723 139.339 156.514 138.948 156.371 138.453C156.241 137.958 156.156 137.392 156.117 136.754C156.078 136.116 156.059 135.452 156.059 134.762C156.059 133.134 156.104 131.507 156.195 129.879C156.286 128.238 156.417 126.663 156.586 125.152L154.145 125.445C154.105 125.445 154.066 125.452 154.027 125.465C153.988 125.478 153.943 125.484 153.891 125.484C153.643 125.484 153.448 125.426 153.305 125.309C153.148 125.191 153.031 125.055 152.953 124.898C152.875 124.742 152.829 124.586 152.816 124.43C152.79 124.26 152.777 124.13 152.777 124.039C152.777 123.857 152.803 123.688 152.855 123.531C152.908 123.375 153.005 123.277 153.148 123.238C153.422 123.134 153.897 123.023 154.574 122.906C155.264 122.776 156.039 122.646 156.898 122.516C157.042 121.461 157.185 120.497 157.328 119.625C157.484 118.74 157.634 117.978 157.777 117.34C157.921 116.689 158.051 116.188 158.168 115.836C158.298 115.471 158.409 115.289 158.5 115.289C158.526 115.289 158.559 115.296 158.598 115.309C158.637 115.322 158.669 115.328 158.695 115.328C158.773 115.328 158.832 115.289 158.871 115.211C158.923 115.12 159.014 115.074 159.145 115.074C159.262 115.074 159.385 115.113 159.516 115.191C159.659 115.257 159.783 115.341 159.887 115.445C160.004 115.549 160.102 115.66 160.18 115.777C160.258 115.882 160.297 115.966 160.297 116.031Z" fill="#346C2F"/>
<path d="M169.984 113.512C169.997 113.772 169.984 114.065 169.945 114.391C169.919 114.703 169.867 115.009 169.789 115.309C169.724 115.608 169.626 115.875 169.496 116.109C169.379 116.344 169.236 116.507 169.066 116.598C168.637 116.819 168.259 116.93 167.934 116.93C167.673 116.93 167.445 116.871 167.25 116.754C167.068 116.624 166.885 116.48 166.703 116.324C166.443 116.116 166.221 115.842 166.039 115.504C165.87 115.165 165.785 114.84 165.785 114.527C165.785 114.28 165.824 113.98 165.902 113.629C165.993 113.264 166.104 112.913 166.234 112.574C166.365 112.236 166.501 111.93 166.645 111.656C166.801 111.37 166.951 111.174 167.094 111.07C167.315 110.888 167.517 110.79 167.699 110.777C167.895 110.751 168.051 110.758 168.168 110.797C168.454 110.862 168.708 110.947 168.93 111.051C169.151 111.142 169.333 111.292 169.477 111.5C169.633 111.695 169.75 111.956 169.828 112.281C169.906 112.607 169.958 113.017 169.984 113.512ZM168.383 122.242C168.448 122.307 168.493 122.522 168.52 122.887C168.559 123.251 168.578 123.727 168.578 124.312C168.578 124.703 168.572 125.126 168.559 125.582C168.546 126.038 168.526 126.507 168.5 126.988C168.487 127.47 168.467 127.958 168.441 128.453C168.415 128.935 168.396 129.397 168.383 129.84C168.344 130.569 168.318 131.246 168.305 131.871C168.305 132.483 168.305 133.076 168.305 133.648C168.305 134.404 168.311 135.094 168.324 135.719C168.337 136.344 168.344 136.865 168.344 137.281C168.344 137.737 168.324 138.089 168.285 138.336C168.259 138.57 168.194 138.701 168.09 138.727C167.973 138.753 167.875 138.811 167.797 138.902C167.719 138.98 167.647 139.059 167.582 139.137C167.517 139.215 167.439 139.28 167.348 139.332C167.27 139.397 167.172 139.417 167.055 139.391C166.99 139.378 166.879 139.319 166.723 139.215C166.566 139.111 166.397 138.987 166.215 138.844C166.046 138.688 165.883 138.512 165.727 138.316C165.57 138.121 165.466 137.919 165.414 137.711C165.388 137.607 165.362 137.398 165.336 137.086C165.323 136.773 165.31 136.396 165.297 135.953C165.284 135.51 165.271 135.022 165.258 134.488C165.245 133.941 165.232 133.395 165.219 132.848C165.219 132.288 165.219 131.741 165.219 131.207C165.219 130.673 165.219 130.191 165.219 129.762C165.219 129.098 165.238 128.421 165.277 127.73C165.329 127.04 165.382 126.396 165.434 125.797C165.499 125.198 165.557 124.677 165.609 124.234C165.674 123.779 165.72 123.46 165.746 123.277C165.798 122.965 165.85 122.724 165.902 122.555C165.967 122.372 166.033 122.242 166.098 122.164C166.176 122.086 166.247 122.04 166.312 122.027C166.391 122.001 166.469 121.982 166.547 121.969C166.703 121.943 166.879 121.936 167.074 121.949C167.283 121.962 167.478 121.982 167.66 122.008C167.842 122.034 167.999 122.073 168.129 122.125C168.272 122.164 168.357 122.203 168.383 122.242Z" fill="#346C2F"/>
<path d="M185.336 130.758C185.336 132.125 185.134 133.355 184.73 134.449C184.34 135.543 183.799 136.474 183.109 137.242C182.432 138.01 181.645 138.603 180.746 139.02C179.848 139.436 178.897 139.645 177.895 139.645C177.478 139.645 177.022 139.592 176.527 139.488C176.033 139.397 175.538 139.241 175.043 139.02C174.548 138.798 174.066 138.505 173.598 138.141C173.129 137.776 172.712 137.327 172.348 136.793C171.983 136.259 171.69 135.634 171.469 134.918C171.26 134.202 171.163 133.375 171.176 132.438C171.176 131.37 171.306 130.4 171.566 129.527C171.827 128.642 172.159 127.854 172.562 127.164C172.979 126.461 173.448 125.855 173.969 125.348C174.49 124.84 175.01 124.417 175.531 124.078C176.052 123.727 176.553 123.466 177.035 123.297C177.517 123.128 177.934 123.03 178.285 123.004C178.467 122.991 178.546 123.01 178.52 123.062C178.507 123.115 178.461 123.173 178.383 123.238C178.305 123.303 178.233 123.368 178.168 123.434C178.116 123.499 178.142 123.538 178.246 123.551C178.337 123.577 178.409 123.603 178.461 123.629C178.526 123.655 178.591 123.688 178.656 123.727L178.812 123.551C178.904 123.486 178.988 123.453 179.066 123.453C179.158 123.453 179.236 123.466 179.301 123.492C179.366 123.505 179.418 123.512 179.457 123.512C179.496 123.512 179.522 123.473 179.535 123.395C179.561 123.251 179.607 123.173 179.672 123.16C179.75 123.134 179.919 123.121 180.18 123.121C180.336 123.121 180.57 123.167 180.883 123.258C181.208 123.349 181.56 123.505 181.938 123.727C182.328 123.948 182.719 124.247 183.109 124.625C183.513 124.99 183.878 125.458 184.203 126.031C184.542 126.591 184.815 127.262 185.023 128.043C185.232 128.824 185.336 129.729 185.336 130.758ZM178.285 125.035C177.829 125.309 177.38 125.68 176.938 126.148C176.495 126.617 176.091 127.158 175.727 127.77C175.375 128.382 175.089 129.065 174.867 129.82C174.646 130.576 174.535 131.37 174.535 132.203C174.535 133.102 174.613 133.915 174.77 134.645C174.939 135.374 175.18 135.999 175.492 136.52C175.805 137.027 176.182 137.424 176.625 137.711C177.081 137.984 177.595 138.121 178.168 138.121C178.676 138.121 179.177 137.978 179.672 137.691C180.18 137.405 180.629 136.975 181.02 136.402C181.41 135.829 181.723 135.12 181.957 134.273C182.204 133.427 182.328 132.444 182.328 131.324C182.328 130.191 182.178 129.241 181.879 128.473C181.579 127.704 181.241 127.086 180.863 126.617C180.499 126.135 180.147 125.797 179.809 125.602C179.47 125.393 179.262 125.289 179.184 125.289C179.001 125.289 178.858 125.289 178.754 125.289C178.663 125.289 178.507 125.204 178.285 125.035Z" fill="#346C2F"/>
<path d="M200.102 138.16C200.102 138.316 200.043 138.492 199.926 138.688C199.822 138.87 199.665 138.961 199.457 138.961C199.34 138.961 199.249 138.928 199.184 138.863C199.118 138.798 199.053 138.766 198.988 138.766C198.897 138.766 198.806 138.798 198.715 138.863C198.637 138.928 198.5 138.961 198.305 138.961C198.044 138.961 197.816 138.87 197.621 138.688C197.439 138.492 197.289 138.251 197.172 137.965C197.055 137.665 196.964 137.346 196.898 137.008C196.846 136.656 196.82 136.331 196.82 136.031C196.82 135.445 196.84 134.781 196.879 134.039C196.931 133.284 196.983 132.516 197.035 131.734C197.1 130.94 197.152 130.152 197.191 129.371C197.243 128.59 197.27 127.867 197.27 127.203C197.27 126.318 197.211 125.628 197.094 125.133C196.977 124.638 196.768 124.391 196.469 124.391C196.182 124.43 195.889 124.677 195.59 125.133C195.29 125.589 194.984 126.174 194.672 126.891C194.359 127.594 194.053 128.395 193.754 129.293C193.454 130.178 193.161 131.09 192.875 132.027C192.602 132.952 192.341 133.857 192.094 134.742C191.846 135.615 191.625 136.396 191.43 137.086C191.234 137.776 191.065 138.336 190.922 138.766C190.779 139.182 190.681 139.391 190.629 139.391C190.525 139.391 190.447 139.365 190.395 139.312C190.342 139.273 190.29 139.228 190.238 139.176C190.199 139.124 190.147 139.072 190.082 139.02C190.017 138.98 189.919 138.961 189.789 138.961C189.672 138.961 189.594 138.974 189.555 139C189.516 139.026 189.47 139.059 189.418 139.098C189.366 139.137 189.301 139.169 189.223 139.195C189.145 139.221 189.008 139.234 188.812 139.234C188.578 139.234 188.344 139.176 188.109 139.059C187.888 138.941 187.777 138.759 187.777 138.512C187.777 138.355 187.803 138.036 187.855 137.555C187.908 137.06 187.966 136.461 188.031 135.758C188.109 135.042 188.188 134.247 188.266 133.375C188.357 132.49 188.435 131.578 188.5 130.641C188.578 129.703 188.643 128.766 188.695 127.828C188.747 126.891 188.773 125.999 188.773 125.152C188.773 124.736 188.767 124.352 188.754 124C188.741 123.635 188.734 123.29 188.734 122.965C188.734 122.887 188.773 122.848 188.852 122.848C189.008 122.848 189.125 122.88 189.203 122.945C189.294 122.997 189.359 123.056 189.398 123.121C189.438 123.186 189.457 123.251 189.457 123.316C189.47 123.368 189.483 123.395 189.496 123.395C189.535 123.395 189.581 123.375 189.633 123.336C189.685 123.284 189.737 123.232 189.789 123.18C189.854 123.128 189.913 123.082 189.965 123.043C190.017 122.991 190.062 122.965 190.102 122.965H190.297C190.492 122.965 190.629 122.939 190.707 122.887C190.785 122.822 190.837 122.757 190.863 122.691C190.902 122.613 190.928 122.548 190.941 122.496C190.954 122.431 190.993 122.398 191.059 122.398C191.098 122.398 191.15 122.431 191.215 122.496C191.293 122.548 191.365 122.646 191.43 122.789C191.508 122.919 191.573 123.095 191.625 123.316C191.677 123.538 191.703 123.805 191.703 124.117C191.703 124.534 191.684 125.061 191.645 125.699C191.618 126.337 191.579 127.021 191.527 127.75C191.488 128.466 191.449 129.195 191.41 129.938C191.371 130.667 191.345 131.331 191.332 131.93C191.475 131.37 191.645 130.751 191.84 130.074C192.048 129.384 192.283 128.688 192.543 127.984C192.816 127.281 193.109 126.598 193.422 125.934C193.734 125.257 194.073 124.658 194.438 124.137C194.802 123.616 195.186 123.199 195.59 122.887C195.993 122.561 196.417 122.398 196.859 122.398C197.562 122.398 198.135 122.529 198.578 122.789C199.034 123.049 199.392 123.408 199.652 123.863C199.913 124.319 200.089 124.853 200.18 125.465C200.284 126.077 200.336 126.734 200.336 127.438C200.336 128.036 200.31 128.668 200.258 129.332C200.206 129.983 200.147 130.641 200.082 131.305C200.03 131.956 199.978 132.6 199.926 133.238C199.887 133.876 199.867 134.475 199.867 135.035C199.867 135.725 199.906 136.35 199.984 136.91C200.062 137.457 200.102 137.874 200.102 138.16Z" fill="#346C2F"/>
<path d="M231.918 113.512C231.814 114.046 231.56 114.573 231.156 115.094C230.766 115.602 230.323 116.038 229.828 116.402C229.763 116.467 229.633 116.539 229.438 116.617C229.255 116.695 229.053 116.78 228.832 116.871C228.624 116.949 228.415 117.021 228.207 117.086C227.999 117.151 227.836 117.19 227.719 117.203C227.615 117.229 227.53 117.223 227.465 117.184C227.413 117.145 227.361 117.099 227.309 117.047C227.257 116.995 227.191 116.949 227.113 116.91C227.048 116.858 226.951 116.832 226.82 116.832C226.664 116.832 226.566 116.799 226.527 116.734C226.501 116.656 226.521 116.52 226.586 116.324C226.612 116.259 226.658 116.168 226.723 116.051C226.788 115.934 226.892 115.784 227.035 115.602C227.139 115.484 227.224 115.354 227.289 115.211C227.367 115.068 227.38 114.938 227.328 114.82C227.289 114.69 227.165 114.586 226.957 114.508C226.749 114.43 226.423 114.391 225.98 114.391C225.525 114.391 224.939 114.449 224.223 114.566C223.441 114.671 222.628 114.866 221.781 115.152C220.948 115.439 220.134 115.771 219.34 116.148C218.559 116.526 217.836 116.93 217.172 117.359C216.508 117.789 215.961 118.212 215.531 118.629C215.115 119.033 214.848 119.417 214.73 119.781C214.613 120.133 214.711 120.419 215.023 120.641C215.297 120.836 215.714 121.005 216.273 121.148C216.833 121.279 217.478 121.402 218.207 121.52C218.936 121.624 219.717 121.741 220.551 121.871C221.384 121.988 222.211 122.132 223.031 122.301C223.865 122.47 224.652 122.678 225.395 122.926C226.15 123.173 226.814 123.479 227.387 123.844C227.79 124.117 228.129 124.378 228.402 124.625C228.676 124.872 228.897 125.12 229.066 125.367C229.236 125.602 229.372 125.836 229.477 126.07C229.581 126.292 229.672 126.52 229.75 126.754C229.802 126.897 229.893 127.06 230.023 127.242C230.167 127.411 230.316 127.62 230.473 127.867C230.629 128.115 230.772 128.401 230.902 128.727C231.033 129.039 231.117 129.41 231.156 129.84C231.208 130.699 231.033 131.513 230.629 132.281C230.238 133.049 229.724 133.759 229.086 134.41C228.461 135.061 227.764 135.647 226.996 136.168C226.228 136.676 225.492 137.099 224.789 137.438C224.177 137.737 223.526 138.017 222.836 138.277C222.146 138.538 221.436 138.766 220.707 138.961C219.978 139.143 219.236 139.286 218.48 139.391C217.738 139.508 217.003 139.566 216.273 139.566C215.062 139.566 213.923 139.397 212.855 139.059C211.801 138.733 210.883 138.18 210.102 137.398C209.724 136.995 209.451 136.591 209.281 136.188C209.112 135.771 209.027 135.361 209.027 134.957C209.027 134.475 209.125 134.007 209.32 133.551C209.516 133.095 209.77 132.665 210.082 132.262C210.395 131.858 210.74 131.5 211.117 131.188C211.495 130.862 211.866 130.602 212.23 130.406C212.738 130.12 213.266 129.846 213.812 129.586C214.372 129.312 214.932 129.072 215.492 128.863C216.052 128.642 216.612 128.46 217.172 128.316C217.732 128.173 218.272 128.082 218.793 128.043C219.014 128.017 219.294 127.991 219.633 127.965C219.971 127.939 220.29 127.926 220.59 127.926C220.785 127.926 220.948 127.978 221.078 128.082C221.208 128.186 221.26 128.277 221.234 128.355C221.169 128.499 221.052 128.57 220.883 128.57C220.727 128.57 220.538 128.596 220.316 128.648C220.069 128.714 219.822 128.759 219.574 128.785C219.327 128.811 219.105 128.857 218.91 128.922C217.426 129.26 216.169 129.69 215.141 130.211C214.125 130.732 213.311 131.259 212.699 131.793C212.1 132.327 211.69 132.835 211.469 133.316C211.247 133.785 211.182 134.143 211.273 134.391C211.404 134.742 211.645 135.016 211.996 135.211C212.348 135.406 212.745 135.549 213.188 135.641C213.63 135.719 214.079 135.764 214.535 135.777C214.991 135.79 215.382 135.784 215.707 135.758C216.462 135.719 217.302 135.608 218.227 135.426C219.164 135.243 220.108 135.003 221.059 134.703C222.022 134.404 222.96 134.052 223.871 133.648C224.783 133.232 225.59 132.783 226.293 132.301C226.996 131.806 227.562 131.279 227.992 130.719C228.422 130.146 228.637 129.547 228.637 128.922C228.637 128.714 228.604 128.512 228.539 128.316C228.487 128.108 228.409 127.893 228.305 127.672C228.109 127.294 227.738 126.975 227.191 126.715C226.645 126.441 225.987 126.214 225.219 126.031C224.464 125.836 223.637 125.667 222.738 125.523C221.853 125.367 220.974 125.211 220.102 125.055C219.242 124.898 218.422 124.723 217.641 124.527C216.859 124.332 216.202 124.091 215.668 123.805C215.069 123.479 214.626 123.16 214.34 122.848C214.066 122.522 213.91 122.118 213.871 121.637C213.858 121.585 213.819 121.493 213.754 121.363C213.689 121.233 213.611 121.096 213.52 120.953C213.441 120.81 213.363 120.673 213.285 120.543C213.207 120.413 213.148 120.309 213.109 120.23C212.901 119.853 212.797 119.443 212.797 119C212.797 118.505 212.908 117.997 213.129 117.477C213.363 116.956 213.65 116.507 213.988 116.129C214.613 115.413 215.434 114.749 216.449 114.137C217.478 113.525 218.598 112.991 219.809 112.535C221.02 112.079 222.263 111.715 223.539 111.441C224.828 111.155 226.046 110.992 227.191 110.953C227.66 110.94 228.188 110.973 228.773 111.051C229.359 111.129 229.9 111.272 230.395 111.48C230.902 111.676 231.306 111.943 231.605 112.281C231.905 112.607 232.009 113.017 231.918 113.512Z" fill="#346C2F"/>
<path d="M246.039 127.555C246.052 128.01 246.013 128.57 245.922 129.234C245.831 129.885 245.727 130.589 245.609 131.344C245.492 132.086 245.382 132.848 245.277 133.629C245.173 134.41 245.121 135.146 245.121 135.836C245.121 136.292 245.154 136.728 245.219 137.145C245.284 137.548 245.395 137.9 245.551 138.199C245.642 138.368 245.688 138.518 245.688 138.648C245.701 138.779 245.694 138.896 245.668 139C245.642 139.091 245.616 139.169 245.59 139.234C245.564 139.312 245.564 139.384 245.59 139.449C245.616 139.514 245.609 139.586 245.57 139.664C245.531 139.755 245.473 139.833 245.395 139.898C245.316 139.977 245.225 140.029 245.121 140.055C245.03 140.094 244.945 140.087 244.867 140.035C244.724 139.944 244.607 139.892 244.516 139.879C244.438 139.866 244.366 139.866 244.301 139.879C244.249 139.905 244.197 139.931 244.145 139.957C244.105 139.983 244.053 139.983 243.988 139.957C243.767 139.84 243.526 139.703 243.266 139.547C243.005 139.391 242.836 139.221 242.758 139.039C242.706 138.961 242.654 138.831 242.602 138.648C242.562 138.466 242.523 138.251 242.484 138.004C242.458 137.757 242.432 137.49 242.406 137.203C242.38 136.917 242.361 136.637 242.348 136.363C241.918 137.171 241.456 137.841 240.961 138.375C240.479 138.909 239.991 139.332 239.496 139.645C239.014 139.97 238.533 140.198 238.051 140.328C237.582 140.458 237.152 140.523 236.762 140.523C236.358 140.523 236 140.471 235.688 140.367C235.388 140.263 235.154 140.139 234.984 139.996C234.346 139.358 233.891 138.844 233.617 138.453C233.357 138.049 233.24 137.724 233.266 137.477C233.331 136.643 233.533 135.875 233.871 135.172C234.21 134.469 234.633 133.824 235.141 133.238C235.648 132.639 236.215 132.105 236.84 131.637C237.478 131.155 238.122 130.732 238.773 130.367C239.438 129.99 240.089 129.677 240.727 129.43C241.365 129.169 241.944 128.961 242.465 128.805C242.439 128.102 242.406 127.49 242.367 126.969C242.341 126.435 242.296 126.044 242.23 125.797C242.035 124.99 241.736 124.391 241.332 124C240.928 123.596 240.44 123.395 239.867 123.395C239.503 123.395 239.132 123.531 238.754 123.805C238.389 124.078 238.057 124.449 237.758 124.918C237.458 125.387 237.211 125.927 237.016 126.539C236.833 127.151 236.736 127.796 236.723 128.473C236.723 128.642 236.729 128.805 236.742 128.961C236.755 129.117 236.775 129.28 236.801 129.449C236.814 129.54 236.781 129.605 236.703 129.645C236.638 129.684 236.553 129.716 236.449 129.742C236.345 129.755 236.234 129.768 236.117 129.781C236 129.794 235.902 129.814 235.824 129.84C235.759 129.866 235.707 129.885 235.668 129.898C235.629 129.898 235.59 129.892 235.551 129.879C235.512 129.853 235.46 129.814 235.395 129.762C235.342 129.71 235.264 129.645 235.16 129.566C235.056 129.488 234.945 129.423 234.828 129.371C234.724 129.319 234.626 129.273 234.535 129.234C234.457 129.195 234.385 129.163 234.32 129.137C234.268 129.098 234.242 129.052 234.242 129C234.242 128.193 234.418 127.359 234.77 126.5C235.134 125.641 235.616 124.859 236.215 124.156C236.827 123.44 237.53 122.854 238.324 122.398C239.132 121.943 239.984 121.715 240.883 121.715C241.612 121.715 242.243 121.826 242.777 122.047C243.311 122.268 243.767 122.555 244.145 122.906C244.522 123.258 244.828 123.648 245.062 124.078C245.31 124.508 245.499 124.944 245.629 125.387C245.772 125.816 245.87 126.227 245.922 126.617C245.987 126.995 246.026 127.307 246.039 127.555ZM242.504 131.031C242.113 131.174 241.684 131.363 241.215 131.598C240.746 131.832 240.271 132.112 239.789 132.438C239.307 132.75 238.826 133.115 238.344 133.531C237.862 133.948 237.413 134.41 236.996 134.918C236.501 135.504 236.143 136.025 235.922 136.48C235.701 136.936 235.564 137.327 235.512 137.652C235.46 137.965 235.473 138.212 235.551 138.395C235.629 138.577 235.72 138.688 235.824 138.727C236.228 138.883 236.645 138.902 237.074 138.785C237.517 138.655 237.953 138.434 238.383 138.121C238.826 137.796 239.249 137.411 239.652 136.969C240.069 136.513 240.46 136.051 240.824 135.582C241.189 135.1 241.514 134.632 241.801 134.176C242.087 133.707 242.322 133.303 242.504 132.965V131.031Z" fill="#346C2F"/>
<path d="M259.438 126.285C259.203 126.285 258.871 126.305 258.441 126.344C258.012 126.383 257.53 126.435 256.996 126.5C256.475 126.552 255.928 126.624 255.355 126.715C254.796 126.793 254.262 126.878 253.754 126.969C253.728 127.672 253.702 128.414 253.676 129.195C253.663 129.977 253.643 130.764 253.617 131.559C253.604 132.353 253.585 133.128 253.559 133.883C253.546 134.625 253.533 135.315 253.52 135.953C253.507 136.591 253.5 137.151 253.5 137.633C253.5 138.102 253.507 138.453 253.52 138.688C253.546 139.26 253.533 139.651 253.48 139.859C253.428 140.068 253.357 140.185 253.266 140.211C253.174 140.25 253.077 140.23 252.973 140.152C252.868 140.074 252.784 140.022 252.719 139.996C252.654 139.983 252.602 140.016 252.562 140.094C252.536 140.172 252.51 140.257 252.484 140.348C252.458 140.452 252.426 140.543 252.387 140.621C252.348 140.712 252.283 140.745 252.191 140.719C252.035 140.68 251.84 140.562 251.605 140.367C251.371 140.185 251.182 139.957 251.039 139.684C250.961 139.54 250.902 139.378 250.863 139.195C250.824 139.026 250.772 138.844 250.707 138.648C250.681 138.518 250.655 138.329 250.629 138.082C250.616 137.835 250.603 137.542 250.59 137.203C250.577 136.865 250.564 136.487 250.551 136.07C250.551 135.654 250.551 135.217 250.551 134.762C250.551 134.15 250.551 133.518 250.551 132.867C250.564 132.216 250.577 131.578 250.59 130.953C250.603 130.315 250.616 129.71 250.629 129.137C250.642 128.564 250.655 128.049 250.668 127.594C250.408 127.659 250.095 127.743 249.73 127.848C249.379 127.939 248.962 128.056 248.48 128.199C248.298 128.264 248.168 128.251 248.09 128.16C248.012 128.069 248.031 127.893 248.148 127.633C248.188 127.568 248.181 127.516 248.129 127.477C248.077 127.438 248.012 127.405 247.934 127.379C247.868 127.34 247.803 127.301 247.738 127.262C247.673 127.223 247.641 127.164 247.641 127.086C247.641 127.008 247.654 126.917 247.68 126.812C247.693 126.708 247.732 126.637 247.797 126.598C247.94 126.52 248.233 126.357 248.676 126.109C249.118 125.849 249.77 125.589 250.629 125.328C250.616 123.792 250.707 122.424 250.902 121.227C251.098 120.029 251.358 118.98 251.684 118.082C252.022 117.171 252.413 116.396 252.855 115.758C253.311 115.12 253.78 114.592 254.262 114.176C254.757 113.759 255.251 113.44 255.746 113.219C256.254 112.997 256.736 112.848 257.191 112.77C257.816 112.652 258.37 112.711 258.852 112.945C259.346 113.18 259.757 113.512 260.082 113.941C260.408 114.358 260.655 114.833 260.824 115.367C260.993 115.888 261.078 116.389 261.078 116.871C261.078 117.457 261.046 117.978 260.98 118.434C260.915 118.876 260.837 119.26 260.746 119.586C260.668 119.898 260.577 120.159 260.473 120.367C260.382 120.562 260.303 120.706 260.238 120.797C260.121 121.018 260.004 121.194 259.887 121.324C259.783 121.454 259.698 121.48 259.633 121.402C259.555 121.337 259.47 121.292 259.379 121.266C259.288 121.227 259.197 121.188 259.105 121.148C259.027 121.109 258.962 121.064 258.91 121.012C258.858 120.96 258.832 120.875 258.832 120.758C258.832 120.706 258.806 120.673 258.754 120.66C258.715 120.647 258.669 120.634 258.617 120.621C258.578 120.595 258.539 120.562 258.5 120.523C258.461 120.484 258.454 120.419 258.48 120.328C258.637 119.573 258.715 118.837 258.715 118.121C258.715 117.535 258.656 117.001 258.539 116.52C258.435 116.025 258.272 115.608 258.051 115.27C257.842 114.918 257.576 114.671 257.25 114.527C256.938 114.371 256.573 114.345 256.156 114.449C255.87 114.514 255.59 114.781 255.316 115.25C255.056 115.719 254.815 116.383 254.594 117.242C254.385 118.102 254.21 119.15 254.066 120.387C253.923 121.611 253.832 123.017 253.793 124.605C254.874 124.397 256.195 124.234 257.758 124.117C257.914 124.104 258.038 124.117 258.129 124.156C258.22 124.182 258.305 124.228 258.383 124.293C258.461 124.358 258.539 124.443 258.617 124.547C258.708 124.651 258.819 124.775 258.949 124.918C259.079 125.061 259.21 125.217 259.34 125.387C259.47 125.543 259.568 125.693 259.633 125.836C259.698 125.966 259.717 126.077 259.691 126.168C259.678 126.259 259.594 126.298 259.438 126.285Z" fill="#346C2F"/>
<path d="M271.977 127.555C271.99 128.01 271.951 128.57 271.859 129.234C271.768 129.885 271.664 130.589 271.547 131.344C271.43 132.086 271.319 132.848 271.215 133.629C271.111 134.41 271.059 135.146 271.059 135.836C271.059 136.292 271.091 136.728 271.156 137.145C271.221 137.548 271.332 137.9 271.488 138.199C271.579 138.368 271.625 138.518 271.625 138.648C271.638 138.779 271.632 138.896 271.605 139C271.579 139.091 271.553 139.169 271.527 139.234C271.501 139.312 271.501 139.384 271.527 139.449C271.553 139.514 271.547 139.586 271.508 139.664C271.469 139.755 271.41 139.833 271.332 139.898C271.254 139.977 271.163 140.029 271.059 140.055C270.967 140.094 270.883 140.087 270.805 140.035C270.661 139.944 270.544 139.892 270.453 139.879C270.375 139.866 270.303 139.866 270.238 139.879C270.186 139.905 270.134 139.931 270.082 139.957C270.043 139.983 269.991 139.983 269.926 139.957C269.704 139.84 269.464 139.703 269.203 139.547C268.943 139.391 268.773 139.221 268.695 139.039C268.643 138.961 268.591 138.831 268.539 138.648C268.5 138.466 268.461 138.251 268.422 138.004C268.396 137.757 268.37 137.49 268.344 137.203C268.318 136.917 268.298 136.637 268.285 136.363C267.855 137.171 267.393 137.841 266.898 138.375C266.417 138.909 265.928 139.332 265.434 139.645C264.952 139.97 264.47 140.198 263.988 140.328C263.52 140.458 263.09 140.523 262.699 140.523C262.296 140.523 261.938 140.471 261.625 140.367C261.326 140.263 261.091 140.139 260.922 139.996C260.284 139.358 259.828 138.844 259.555 138.453C259.294 138.049 259.177 137.724 259.203 137.477C259.268 136.643 259.47 135.875 259.809 135.172C260.147 134.469 260.57 133.824 261.078 133.238C261.586 132.639 262.152 132.105 262.777 131.637C263.415 131.155 264.06 130.732 264.711 130.367C265.375 129.99 266.026 129.677 266.664 129.43C267.302 129.169 267.882 128.961 268.402 128.805C268.376 128.102 268.344 127.49 268.305 126.969C268.279 126.435 268.233 126.044 268.168 125.797C267.973 124.99 267.673 124.391 267.27 124C266.866 123.596 266.378 123.395 265.805 123.395C265.44 123.395 265.069 123.531 264.691 123.805C264.327 124.078 263.995 124.449 263.695 124.918C263.396 125.387 263.148 125.927 262.953 126.539C262.771 127.151 262.673 127.796 262.66 128.473C262.66 128.642 262.667 128.805 262.68 128.961C262.693 129.117 262.712 129.28 262.738 129.449C262.751 129.54 262.719 129.605 262.641 129.645C262.576 129.684 262.491 129.716 262.387 129.742C262.283 129.755 262.172 129.768 262.055 129.781C261.938 129.794 261.84 129.814 261.762 129.84C261.697 129.866 261.645 129.885 261.605 129.898C261.566 129.898 261.527 129.892 261.488 129.879C261.449 129.853 261.397 129.814 261.332 129.762C261.28 129.71 261.202 129.645 261.098 129.566C260.993 129.488 260.883 129.423 260.766 129.371C260.661 129.319 260.564 129.273 260.473 129.234C260.395 129.195 260.323 129.163 260.258 129.137C260.206 129.098 260.18 129.052 260.18 129C260.18 128.193 260.355 127.359 260.707 126.5C261.072 125.641 261.553 124.859 262.152 124.156C262.764 123.44 263.467 122.854 264.262 122.398C265.069 121.943 265.922 121.715 266.82 121.715C267.549 121.715 268.181 121.826 268.715 122.047C269.249 122.268 269.704 122.555 270.082 122.906C270.46 123.258 270.766 123.648 271 124.078C271.247 124.508 271.436 124.944 271.566 125.387C271.71 125.816 271.807 126.227 271.859 126.617C271.924 126.995 271.964 127.307 271.977 127.555ZM268.441 131.031C268.051 131.174 267.621 131.363 267.152 131.598C266.684 131.832 266.208 132.112 265.727 132.438C265.245 132.75 264.763 133.115 264.281 133.531C263.799 133.948 263.35 134.41 262.934 134.918C262.439 135.504 262.081 136.025 261.859 136.48C261.638 136.936 261.501 137.327 261.449 137.652C261.397 137.965 261.41 138.212 261.488 138.395C261.566 138.577 261.658 138.688 261.762 138.727C262.165 138.883 262.582 138.902 263.012 138.785C263.454 138.655 263.891 138.434 264.32 138.121C264.763 137.796 265.186 137.411 265.59 136.969C266.007 136.513 266.397 136.051 266.762 135.582C267.126 135.1 267.452 134.632 267.738 134.176C268.025 133.707 268.259 133.303 268.441 132.965V131.031Z" fill="#346C2F"/>
<path d="M284.613 124.957C284.6 125.335 284.561 125.712 284.496 126.09C284.444 126.454 284.366 126.806 284.262 127.145C284.158 127.47 284.027 127.763 283.871 128.023C283.728 128.284 283.565 128.492 283.383 128.648C283.227 128.779 283.103 128.844 283.012 128.844C282.921 128.844 282.842 128.818 282.777 128.766C282.725 128.714 282.68 128.655 282.641 128.59C282.602 128.525 282.549 128.486 282.484 128.473C282.432 128.46 282.361 128.466 282.27 128.492C282.191 128.505 282.107 128.505 282.016 128.492C281.938 128.479 281.859 128.434 281.781 128.355C281.716 128.264 281.671 128.108 281.645 127.887C281.618 127.639 281.625 127.32 281.664 126.93C281.716 126.526 281.742 126.135 281.742 125.758C281.742 125.419 281.703 125.139 281.625 124.918C281.56 124.684 281.436 124.566 281.254 124.566C281.163 124.566 281 124.638 280.766 124.781C280.544 124.911 280.297 125.198 280.023 125.641C279.75 126.083 279.477 126.728 279.203 127.574C278.93 128.408 278.708 129.521 278.539 130.914C278.539 132.711 278.552 134.156 278.578 135.25C278.604 136.344 278.617 137.197 278.617 137.809C278.617 138.329 278.604 138.701 278.578 138.922C278.552 139.143 278.487 139.286 278.383 139.352C278.318 139.391 278.188 139.436 277.992 139.488C277.81 139.553 277.608 139.612 277.387 139.664C277.178 139.716 276.977 139.762 276.781 139.801C276.586 139.84 276.462 139.853 276.41 139.84C276.371 139.827 276.299 139.781 276.195 139.703C276.091 139.638 275.98 139.553 275.863 139.449C275.759 139.345 275.661 139.234 275.57 139.117C275.479 139.013 275.427 138.922 275.414 138.844C275.388 138.714 275.375 138.421 275.375 137.965C275.388 137.496 275.395 136.936 275.395 136.285C275.408 135.634 275.421 134.924 275.434 134.156C275.447 133.375 275.453 132.6 275.453 131.832C275.453 131.337 275.466 130.79 275.492 130.191C275.531 129.579 275.57 128.961 275.609 128.336C275.661 127.711 275.714 127.099 275.766 126.5C275.818 125.901 275.863 125.367 275.902 124.898C275.954 124.417 275.993 124.02 276.02 123.707C276.059 123.382 276.085 123.186 276.098 123.121C276.111 123.017 276.156 122.978 276.234 123.004C276.326 123.03 276.417 123.076 276.508 123.141C276.612 123.206 276.703 123.264 276.781 123.316C276.859 123.368 276.911 123.368 276.938 123.316C276.964 123.199 277.061 123.186 277.23 123.277C277.4 123.355 277.556 123.447 277.699 123.551C277.751 123.616 277.81 123.674 277.875 123.727C277.953 123.766 278.025 123.824 278.09 123.902C278.155 123.967 278.207 124.059 278.246 124.176C278.298 124.293 278.324 124.449 278.324 124.645C278.324 124.827 278.337 125.1 278.363 125.465C278.389 125.829 278.422 126.259 278.461 126.754C278.604 126.285 278.773 125.79 278.969 125.27C279.177 124.749 279.424 124.273 279.711 123.844C279.997 123.401 280.336 123.036 280.727 122.75C281.117 122.464 281.586 122.32 282.133 122.32C282.432 122.32 282.732 122.379 283.031 122.496C283.331 122.613 283.598 122.789 283.832 123.023C284.079 123.245 284.275 123.518 284.418 123.844C284.561 124.169 284.626 124.54 284.613 124.957Z" fill="#346C2F"/>
<path d="M291.039 113.512C291.052 113.772 291.039 114.065 291 114.391C290.974 114.703 290.922 115.009 290.844 115.309C290.779 115.608 290.681 115.875 290.551 116.109C290.434 116.344 290.29 116.507 290.121 116.598C289.691 116.819 289.314 116.93 288.988 116.93C288.728 116.93 288.5 116.871 288.305 116.754C288.122 116.624 287.94 116.48 287.758 116.324C287.497 116.116 287.276 115.842 287.094 115.504C286.924 115.165 286.84 114.84 286.84 114.527C286.84 114.28 286.879 113.98 286.957 113.629C287.048 113.264 287.159 112.913 287.289 112.574C287.419 112.236 287.556 111.93 287.699 111.656C287.855 111.37 288.005 111.174 288.148 111.07C288.37 110.888 288.572 110.79 288.754 110.777C288.949 110.751 289.105 110.758 289.223 110.797C289.509 110.862 289.763 110.947 289.984 111.051C290.206 111.142 290.388 111.292 290.531 111.5C290.688 111.695 290.805 111.956 290.883 112.281C290.961 112.607 291.013 113.017 291.039 113.512ZM289.438 122.242C289.503 122.307 289.548 122.522 289.574 122.887C289.613 123.251 289.633 123.727 289.633 124.312C289.633 124.703 289.626 125.126 289.613 125.582C289.6 126.038 289.581 126.507 289.555 126.988C289.542 127.47 289.522 127.958 289.496 128.453C289.47 128.935 289.451 129.397 289.438 129.84C289.398 130.569 289.372 131.246 289.359 131.871C289.359 132.483 289.359 133.076 289.359 133.648C289.359 134.404 289.366 135.094 289.379 135.719C289.392 136.344 289.398 136.865 289.398 137.281C289.398 137.737 289.379 138.089 289.34 138.336C289.314 138.57 289.249 138.701 289.145 138.727C289.027 138.753 288.93 138.811 288.852 138.902C288.773 138.98 288.702 139.059 288.637 139.137C288.572 139.215 288.493 139.28 288.402 139.332C288.324 139.397 288.227 139.417 288.109 139.391C288.044 139.378 287.934 139.319 287.777 139.215C287.621 139.111 287.452 138.987 287.27 138.844C287.1 138.688 286.938 138.512 286.781 138.316C286.625 138.121 286.521 137.919 286.469 137.711C286.443 137.607 286.417 137.398 286.391 137.086C286.378 136.773 286.365 136.396 286.352 135.953C286.339 135.51 286.326 135.022 286.312 134.488C286.299 133.941 286.286 133.395 286.273 132.848C286.273 132.288 286.273 131.741 286.273 131.207C286.273 130.673 286.273 130.191 286.273 129.762C286.273 129.098 286.293 128.421 286.332 127.73C286.384 127.04 286.436 126.396 286.488 125.797C286.553 125.198 286.612 124.677 286.664 124.234C286.729 123.779 286.775 123.46 286.801 123.277C286.853 122.965 286.905 122.724 286.957 122.555C287.022 122.372 287.087 122.242 287.152 122.164C287.23 122.086 287.302 122.04 287.367 122.027C287.445 122.001 287.523 121.982 287.602 121.969C287.758 121.943 287.934 121.936 288.129 121.949C288.337 121.962 288.533 121.982 288.715 122.008C288.897 122.034 289.053 122.073 289.184 122.125C289.327 122.164 289.411 122.203 289.438 122.242Z" fill="#346C2F"/>
</svg>
